<svg xmlns="http://www.w3.org/2000/svg" width="477" height="551"><rect width="100%" height="100%" x="0" y="0" fill="#181719"/><polyline fill="#222" fill-opacity=".133" stroke="#000" stroke-opacity=".02" points="0 45.957 26.533 0 79.6 0 106.133 45.957 79.6 91.914 26.533 91.914 0 45.957" transform="translate(-53.06666666666667,-45.95708142749421)"/><polyline fill="#222" fill-opacity=".133" stroke="#000" stroke-opacity=".02" points="0 45.957 26.533 0 79.6 0 106.133 45.957 79.6 91.914 26.533 91.914 0 45.957" transform="translate(424.53333333333336,-45.95708142749421)"/><polyline fill="#222" fill-opacity=".133" stroke="#000" stroke-opacity=".02" points="0 45.957 26.533 0 79.6 0 106.133 45.957 79.6 91.914 26.533 91.914 0 45.957" transform="translate(-53.06666666666667,505.5278957024363)"/><polyline fill="#222" fill-opacity=".133" stroke="#000" stroke-opacity=".02" points="0 45.957 26.533 0 79.6 0 106.133 45.957 79.6 91.914 26.533 91.914 0 45.957" transform="translate(424.53333333333336,505.5278957024363)"/><polyline fill="#ddd" fill-opacity=".055" stroke="#000" stroke-opacity=".02" points="0 45.957 26.533 0 79.6 0 106.133 45.957 79.6 91.914 26.533 91.914 0 45.957" transform="translate(26.53333333333334,0)"/><polyline fill="#ddd" fill-opacity=".055" stroke="#000" stroke-opacity=".02" points="0 45.957 26.533 0 79.6 0 106.133 45.957 79.6 91.914 26.533 91.914 0 45.957" transform="translate(26.53333333333334,551.4849771299305)"/><polyline fill="#222" fill-opacity=".15" stroke="#000" stroke-opacity=".02" points="0 45.957 26.533 0 79.6 0 106.133 45.957 79.6 91.914 26.533 91.914 0 45.957" transform="translate(106.13333333333335,-45.95708142749421)"/><polyline fill="#222" fill-opacity=".15" stroke="#000" stroke-opacity=".02" points="0 45.957 26.533 0 79.6 0 106.133 45.957 79.6 91.914 26.533 91.914 0 45.957" transform="translate(106.13333333333335,505.5278957024363)"/><polyline fill="#222" fill-opacity=".029" stroke="#000" stroke-opacity=".02" points="0 45.957 26.533 0 79.6 0 106.133 45.957 79.6 91.914 26.533 91.914 0 45.957" transform="translate(185.73333333333335,0)"/><polyline fill="#222" fill-opacity=".029" stroke="#000" stroke-opacity=".02" points="0 45.957 26.533 0 79.6 0 106.133 45.957 79.6 91.914 26.533 91.914 0 45.957" transform="translate(185.73333333333335,551.4849771299305)"/><polyline fill="#222" fill-opacity=".046" stroke="#000" stroke-opacity=".02" points="0 45.957 26.533 0 79.6 0 106.133 45.957 79.6 91.914 26.533 91.914 0 45.957" transform="translate(265.33333333333337,-45.95708142749421)"/><polyline fill="#222" fill-opacity=".046" stroke="#000" stroke-opacity=".02" points="0 45.957 26.533 0 79.6 0 106.133 45.957 79.6 91.914 26.533 91.914 0 45.957" transform="translate(265.33333333333337,505.5278957024363)"/><polyline fill="#222" fill-opacity=".15" stroke="#000" stroke-opacity=".02" points="0 45.957 26.533 0 79.6 0 106.133 45.957 79.6 91.914 26.533 91.914 0 45.957" transform="translate(344.9333333333334,0)"/><polyline fill="#222" fill-opacity=".15" stroke="#000" stroke-opacity=".02" points="0 45.957 26.533 0 79.6 0 106.133 45.957 79.6 91.914 26.533 91.914 0 45.957" transform="translate(344.9333333333334,551.4849771299305)"/><polyline fill="#222" fill-opacity=".081" stroke="#000" stroke-opacity=".02" points="0 45.957 26.533 0 79.6 0 106.133 45.957 79.6 91.914 26.533 91.914 0 45.957" transform="translate(-53.06666666666667,45.95708142749421)"/><polyline fill="#222" fill-opacity=".081" stroke="#000" stroke-opacity=".02" points="0 45.957 26.533 0 79.6 0 106.133 45.957 79.6 91.914 26.533 91.914 0 45.957" transform="translate(424.53333333333336,45.95708142749421)"/><polyline fill="#ddd" fill-opacity=".055" stroke="#000" stroke-opacity=".02" points="0 45.957 26.533 0 79.6 0 106.133 45.957 79.6 91.914 26.533 91.914 0 45.957" transform="translate(26.53333333333334,91.9141628549884)"/><polyline fill="#ddd" fill-opacity=".037" stroke="#000" stroke-opacity=".02" points="0 45.957 26.533 0 79.6 0 106.133 45.957 79.6 91.914 26.533 91.914 0 45.957" transform="translate(106.13333333333335,45.95708142749421)"/><polyline fill="#222" fill-opacity=".15" stroke="#000" stroke-opacity=".02" points="0 45.957 26.533 0 79.6 0 106.133 45.957 79.6 91.914 26.533 91.914 0 45.957" transform="translate(185.73333333333335,91.9141628549884)"/><polyline fill="#ddd" fill-opacity=".107" stroke="#000" stroke-opacity=".02" points="0 45.957 26.533 0 79.6 0 106.133 45.957 79.6 91.914 26.533 91.914 0 45.957" transform="translate(265.33333333333337,45.95708142749421)"/><polyline fill="#222" fill-opacity=".15" stroke="#000" stroke-opacity=".02" points="0 45.957 26.533 0 79.6 0 106.133 45.957 79.6 91.914 26.533 91.914 0 45.957" transform="translate(344.9333333333334,91.9141628549884)"/><polyline fill="#ddd" fill-opacity=".089" stroke="#000" stroke-opacity=".02" points="0 45.957 26.533 0 79.6 0 106.133 45.957 79.6 91.914 26.533 91.914 0 45.957" transform="translate(-53.06666666666667,137.87124428248262)"/><polyline fill="#ddd" fill-opacity=".089" stroke="#000" stroke-opacity=".02" points="0 45.957 26.533 0 79.6 0 106.133 45.957 79.6 91.914 26.533 91.914 0 45.957" transform="translate(424.53333333333336,137.87124428248262)"/><polyline fill="#222" fill-opacity=".046" stroke="#000" stroke-opacity=".02" points="0 45.957 26.533 0 79.6 0 106.133 45.957 79.6 91.914 26.533 91.914 0 45.957" transform="translate(26.53333333333334,183.82832570997684)"/><polyline fill="#ddd" fill-opacity=".055" stroke="#000" stroke-opacity=".02" points="0 45.957 26.533 0 79.6 0 106.133 45.957 79.6 91.914 26.533 91.914 0 45.957" transform="translate(106.13333333333335,137.87124428248262)"/><polyline fill="#ddd" fill-opacity=".055" stroke="#000" stroke-opacity=".02" points="0 45.957 26.533 0 79.6 0 106.133 45.957 79.6 91.914 26.533 91.914 0 45.957" transform="translate(185.73333333333335,183.82832570997684)"/><polyline fill="#ddd" fill-opacity=".037" stroke="#000" stroke-opacity=".02" points="0 45.957 26.533 0 79.6 0 106.133 45.957 79.6 91.914 26.533 91.914 0 45.957" transform="translate(265.33333333333337,137.87124428248262)"/><polyline fill="#ddd" fill-opacity=".055" stroke="#000" stroke-opacity=".02" points="0 45.957 26.533 0 79.6 0 106.133 45.957 79.6 91.914 26.533 91.914 0 45.957" transform="translate(344.9333333333334,183.82832570997684)"/><polyline fill="#ddd" fill-opacity=".141" stroke="#000" stroke-opacity=".02" points="0 45.957 26.533 0 79.6 0 106.133 45.957 79.6 91.914 26.533 91.914 0 45.957" transform="translate(-53.06666666666667,229.78540713747103)"/><polyline fill="#ddd" fill-opacity=".141" stroke="#000" stroke-opacity=".02" points="0 45.957 26.533 0 79.6 0 106.133 45.957 79.6 91.914 26.533 91.914 0 45.957" transform="translate(424.53333333333336,229.78540713747103)"/><polyline fill="#ddd" fill-opacity=".107" stroke="#000" stroke-opacity=".02" points="0 45.957 26.533 0 79.6 0 106.133 45.957 79.6 91.914 26.533 91.914 0 45.957" transform="translate(26.53333333333334,275.74248856496524)"/><polyline fill="#222" fill-opacity=".046" stroke="#000" stroke-opacity=".02" points="0 45.957 26.533 0 79.6 0 106.133 45.957 79.6 91.914 26.533 91.914 0 45.957" transform="translate(106.13333333333335,229.78540713747103)"/><polyline fill="#ddd" fill-opacity=".089" stroke="#000" stroke-opacity=".02" points="0 45.957 26.533 0 79.6 0 106.133 45.957 79.6 91.914 26.533 91.914 0 45.957" transform="translate(185.73333333333335,275.74248856496524)"/><polyline fill="#ddd" fill-opacity=".072" stroke="#000" stroke-opacity=".02" points="0 45.957 26.533 0 79.6 0 106.133 45.957 79.6 91.914 26.533 91.914 0 45.957" transform="translate(265.33333333333337,229.78540713747103)"/><polyline fill="#222" fill-opacity=".133" stroke="#000" stroke-opacity=".02" points="0 45.957 26.533 0 79.6 0 106.133 45.957 79.6 91.914 26.533 91.914 0 45.957" transform="translate(344.9333333333334,275.74248856496524)"/><polyline fill="#ddd" fill-opacity=".124" stroke="#000" stroke-opacity=".02" points="0 45.957 26.533 0 79.6 0 106.133 45.957 79.6 91.914 26.533 91.914 0 45.957" transform="translate(-53.06666666666667,321.6995699924595)"/><polyline fill="#ddd" fill-opacity=".124" stroke="#000" stroke-opacity=".02" points="0 45.957 26.533 0 79.6 0 106.133 45.957 79.6 91.914 26.533 91.914 0 45.957" transform="translate(424.53333333333336,321.6995699924595)"/><polyline fill="#ddd" fill-opacity=".037" stroke="#000" stroke-opacity=".02" points="0 45.957 26.533 0 79.6 0 106.133 45.957 79.6 91.914 26.533 91.914 0 45.957" transform="translate(26.53333333333334,367.6566514199537)"/><polyline fill="#222" fill-opacity=".063" stroke="#000" stroke-opacity=".02" points="0 45.957 26.533 0 79.6 0 106.133 45.957 79.6 91.914 26.533 91.914 0 45.957" transform="translate(106.13333333333335,321.6995699924595)"/><polyline fill="#ddd" fill-opacity=".037" stroke="#000" stroke-opacity=".02" points="0 45.957 26.533 0 79.6 0 106.133 45.957 79.6 91.914 26.533 91.914 0 45.957" transform="translate(185.73333333333335,367.6566514199537)"/><polyline fill="#222" fill-opacity=".029" stroke="#000" stroke-opacity=".02" points="0 45.957 26.533 0 79.6 0 106.133 45.957 79.6 91.914 26.533 91.914 0 45.957" transform="translate(265.33333333333337,321.6995699924595)"/><polyline fill="#222" fill-opacity=".046" stroke="#000" stroke-opacity=".02" points="0 45.957 26.533 0 79.6 0 106.133 45.957 79.6 91.914 26.533 91.914 0 45.957" transform="translate(344.9333333333334,367.6566514199537)"/><polyline fill="#222" fill-opacity=".15" stroke="#000" stroke-opacity=".02" points="0 45.957 26.533 0 79.6 0 106.133 45.957 79.6 91.914 26.533 91.914 0 45.957" transform="translate(-53.06666666666667,413.6137328474479)"/><polyline fill="#222" fill-opacity=".15" stroke="#000" stroke-opacity=".02" points="0 45.957 26.533 0 79.6 0 106.133 45.957 79.6 91.914 26.533 91.914 0 45.957" transform="translate(424.53333333333336,413.6137328474479)"/><polyline fill="#222" fill-opacity=".115" stroke="#000" stroke-opacity=".02" points="0 45.957 26.533 0 79.6 0 106.133 45.957 79.6 91.914 26.533 91.914 0 45.957" transform="translate(26.53333333333334,459.5708142749421)"/><polyline fill="#ddd" fill-opacity=".055" stroke="#000" stroke-opacity=".02" points="0 45.957 26.533 0 79.6 0 106.133 45.957 79.6 91.914 26.533 91.914 0 45.957" transform="translate(106.13333333333335,413.6137328474479)"/><polyline fill="#ddd" fill-opacity=".141" stroke="#000" stroke-opacity=".02" points="0 45.957 26.533 0 79.6 0 106.133 45.957 79.6 91.914 26.533 91.914 0 45.957" transform="translate(185.73333333333335,459.5708142749421)"/><polyline fill="#222" fill-opacity=".133" stroke="#000" stroke-opacity=".02" points="0 45.957 26.533 0 79.6 0 106.133 45.957 79.6 91.914 26.533 91.914 0 45.957" transform="translate(265.33333333333337,413.6137328474479)"/><polyline fill="#ddd" fill-opacity=".055" stroke="#000" stroke-opacity=".02" points="0 45.957 26.533 0 79.6 0 106.133 45.957 79.6 91.914 26.533 91.914 0 45.957" transform="translate(344.9333333333334,459.5708142749421)"/></svg>